<?xml version="1.0" encoding="utf-8"?><!-- Uploaded to: SVG Repo, www.svgrepo.com, Generator: SVG Repo Mixer Tools -->
<svg width="800px" height="800px" viewBox="0 0 24 24" fill="none" xmlns="http://www.w3.org/2000/svg">
<path fill-rule="evenodd" clip-rule="evenodd" d="M9.75 4.5C8.92157 4.5 8.25 5.17157 8.25 6C8.25 6.82843 8.92157 7.5 9.75 7.5H11.25V6C11.25 5.17157 10.5784 4.5 9.75 4.5ZM12 4.01563C11.4503 3.39282 10.646 3 9.75 3C8.09315 3 6.75 4.34315 6.75 6C6.75 6.54643 6.89609 7.05874 7.15135 7.5L4.5 7.5L3.75 8.25V12L4.5 12.75H5.25L5.25 19.2659L6.3872 20.25L11.25 20.25H12.75H17.6128L18.75 19.2659V12.75H19.5L20.25 12V8.25L19.5 7.5H16.8487C17.1039 7.05874 17.25 6.54643 17.25 6C17.25 4.34315 15.9069 3 14.25 3C13.354 3 12.5497 3.39282 12 4.01563ZM12.75 5.9986C12.75 5.99907 12.75 5.99953 12.75 6V7.5L14.25 7.5C15.0784 7.5 15.75 6.82843 15.75 6C15.75 5.17157 15.0784 4.5 14.25 4.5C13.422 4.5 12.7508 5.17082 12.75 5.9986ZM11.25 9L9.75 9H5.25L5.25 11.25H11.25V9ZM12.75 18.75H17.0539L17.25 18.5803V12.75H12.75V18.75ZM11.25 12.75V18.75H6.94613L6.75 18.5803L6.75 12.75H11.25ZM12.75 11.25H18.75V9L12.75 9V11.25Z" fill="#080341"/>
</svg>